<!-- <svg viewBox="0 0 120 28" xmlns="http://www.w3.org/2000/svg" preserveAspectRatio="none">
  <defs>
    <linearGradient id="grad2" gradientTransform="rotate(90)">
      <stop offset="0%" stop-color="#1c1c1c" />
      <stop offset="100%" stop-color="#232526" />
    </linearGradient>
  </defs>
  <path d="M0,10 Q30,35 60,20 Q90,5 120,30 V0 H0 Z" fill="url(#grad2)">
    <animate attributeName="d" dur="8s" repeatCount="indefinite"
      values="
        M0,10 Q30,35 60,20 Q90,5 120,30 V0 H0 Z;
        M0,10 Q30,25 60,10 Q90,15 120,20 V0 H0 Z;
        M0,10 Q30,35 60,20 Q90,5 120,30 V0 H0 Z
      "
    />
  </path>
</svg> -->

<svg width="378" height="98" viewBox="0 0 378 98" xmlns="http://www.w3.org/2000/svg">
    <g fill="#ebedf0">
    
        <rect x="0" y="0" width="12" height="12" rx="2" />
        <rect x="14" y="0" width="12" height="12" rx="2" />
        <rect x="28" y="0" width="12" height="12" rx="2" />
        <rect x="42" y="0" width="12" height="12" rx="2" />
        <rect x="56" y="0" width="12" height="12" rx="2" />
        <rect x="70" y="0" width="12" height="12" rx="2" />
        <rect x="84" y="0" width="12" height="12" rx="2" />
        <rect x="98" y="0" width="12" height="12" rx="2" />
        <rect x="112" y="0" width="12" height="12" rx="2" />
        <rect x="126" y="0" width="12" height="12" rx="2" />
        <rect x="140" y="0" width="12" height="12" rx="2" />
        <rect x="154" y="0" width="12" height="12" rx="2" />
        <rect x="168" y="0" width="12" height="12" rx="2" />
        <rect x="182" y="0" width="12" height="12" rx="2" />
        <rect x="196" y="0" width="12" height="12" rx="2" />
        <rect x="210" y="0" width="12" height="12" rx="2" />
        <rect x="224" y="0" width="12" height="12" rx="2" />
        <rect x="238" y="0" width="12" height="12" rx="2" />
        <rect x="252" y="0" width="12" height="12" rx="2" />
        <rect x="266" y="0" width="12" height="12" rx="2" />
        <rect x="280" y="0" width="12" height="12" rx="2" />
        <rect x="294" y="0" width="12" height="12" rx="2" />
        <rect x="308" y="0" width="12" height="12" rx="2" />
        <rect x="322" y="0" width="12" height="12" rx="2" />
        <rect x="336" y="0" width="12" height="12" rx="2" />
        <rect x="350" y="0" width="12" height="12" rx="2" />
        <rect x="364" y="0" width="12" height="12" rx="2" />
        <rect x="42" y="14" width="12" height="12" rx="2" />
        <rect x="98" y="14" width="12" height="12" rx="2" />
        <rect x="154" y="14" width="12" height="12" rx="2" />
        <rect x="210" y="14" width="12" height="12" rx="2" />
        <rect x="266" y="14" width="12" height="12" rx="2" />
        <rect x="322" y="14" width="12" height="12" rx="2" />
        <rect x="42" y="28" width="12" height="12" rx="2" />
        <rect x="70" y="28" width="12" height="12" rx="2" />
        <rect x="98" y="28" width="12" height="12" rx="2" />
        <rect x="112" y="28" width="12" height="12" rx="2" />
        <rect x="126" y="28" width="12" height="12" rx="2" />
        <rect x="154" y="28" width="12" height="12" rx="2" />
        <rect x="196" y="28" width="12" height="12" rx="2" />
        <rect x="210" y="28" width="12" height="12" rx="2" />
        <rect x="252" y="28" width="12" height="12" rx="2" />
        <rect x="266" y="28" width="12" height="12" rx="2" />
        <rect x="294" y="28" width="12" height="12" rx="2" />
        <rect x="322" y="28" width="12" height="12" rx="2" />
        <rect x="42" y="42" width="12" height="12" rx="2" />
        <rect x="70" y="42" width="12" height="12" rx="2" />
        <rect x="98" y="42" width="12" height="12" rx="2" />
        <rect x="154" y="42" width="12" height="12" rx="2" />
        <rect x="196" y="42" width="12" height="12" rx="2" />
        <rect x="210" y="42" width="12" height="12" rx="2" />
        <rect x="252" y="42" width="12" height="12" rx="2" />
        <rect x="266" y="42" width="12" height="12" rx="2" />
        <rect x="308" y="42" width="12" height="12" rx="2" />
        <rect x="322" y="42" width="12" height="12" rx="2" />
        <rect x="42" y="56" width="12" height="12" rx="2" />
        <rect x="70" y="56" width="12" height="12" rx="2" />
        <rect x="98" y="56" width="12" height="12" rx="2" />
        <rect x="126" y="56" width="12" height="12" rx="2" />
        <rect x="154" y="56" width="12" height="12" rx="2" />
        <rect x="196" y="56" width="12" height="12" rx="2" />
        <rect x="210" y="56" width="12" height="12" rx="2" />
        <rect x="266" y="56" width="12" height="12" rx="2" />
        <rect x="322" y="56" width="12" height="12" rx="2" />
        <rect x="42" y="70" width="12" height="12" rx="2" />
        <rect x="98" y="70" width="12" height="12" rx="2" />
        <rect x="126" y="70" width="12" height="12" rx="2" />
        <rect x="154" y="70" width="12" height="12" rx="2" />
        <rect x="196" y="70" width="12" height="12" rx="2" />
        <rect x="210" y="70" width="12" height="12" rx="2" />
        <rect x="266" y="70" width="12" height="12" rx="2" />
        <rect x="322" y="70" width="12" height="12" rx="2" />
        <rect x="0" y="84" width="12" height="12" rx="2" />
        <rect x="14" y="84" width="12" height="12" rx="2" />
        <rect x="28" y="84" width="12" height="12" rx="2" />
        <rect x="42" y="84" width="12" height="12" rx="2" />
        <rect x="56" y="84" width="12" height="12" rx="2" />
        <rect x="70" y="84" width="12" height="12" rx="2" />
        <rect x="84" y="84" width="12" height="12" rx="2" />
        <rect x="98" y="84" width="12" height="12" rx="2" />
        <rect x="112" y="84" width="12" height="12" rx="2" />
        <rect x="126" y="84" width="12" height="12" rx="2" />
        <rect x="140" y="84" width="12" height="12" rx="2" />
        <rect x="154" y="84" width="12" height="12" rx="2" />
        <rect x="168" y="84" width="12" height="12" rx="2" />
        <rect x="182" y="84" width="12" height="12" rx="2" />
        <rect x="196" y="84" width="12" height="12" rx="2" />
        <rect x="210" y="84" width="12" height="12" rx="2" />
        <rect x="224" y="84" width="12" height="12" rx="2" />
        <rect x="238" y="84" width="12" height="12" rx="2" />
        <rect x="252" y="84" width="12" height="12" rx="2" />
        <rect x="266" y="84" width="12" height="12" rx="2" />
        <rect x="280" y="84" width="12" height="12" rx="2" />
        <rect x="294" y="84" width="12" height="12" rx="2" />
        <rect x="308" y="84" width="12" height="12" rx="2" />
        <rect x="322" y="84" width="12" height="12" rx="2" />
        <rect x="336" y="84" width="12" height="12" rx="2" />
        <rect x="350" y="84" width="12" height="12" rx="2" />
        <rect x="364" y="84" width="12" height="12" rx="2" />
        
        <!-- <g>
            <rect x="0" y="14" width="12" height="12" rx="2"><animate attributeName="fill" values="#ebedf0; #44a340" begin="0.5s" dur="0.5s" fill="freeze"/></rect>
            <rect x="14" y="14" width="12" height="12" rx="2"><animate attributeName="fill" values="#ebedf0; #44a340" begin="0.5s" dur="0.5s" fill="freeze"/></rect>
            <rect x="28" y="14" width="12" height="12" rx="2"><animate attributeName="fill" values="#ebedf0; #44a340" begin="0.5s" dur="0.5s" fill="freeze"/></rect>
            <rect x="0" y="28" width="12" height="12" rx="2"><animate attributeName="fill" values="#ebedf0; #44a340" begin="0.5s" dur="0.5s" fill="freeze"/></rect>
            <rect x="28" y="28" width="12" height="12" rx="2"><animate attributeName="fill" values="#ebedf0; #44a340" begin="0.5s" dur="0.5s" fill="freeze"/></rect>
            <rect x="0" y="42" width="12" height="12" rx="2"><animate attributeName="fill" values="#ebedf0; #44a340" begin="0.5s" dur="0.5s" fill="freeze"/></rect>
            <rect x="14" y="42" width="12" height="12" rx="2"><animate attributeName="fill" values="#ebedf0; #44a340" begin="0.5s" dur="0.5s" fill="freeze"/></rect>
            <rect x="28" y="42" width="12" height="12" rx="2"><animate attributeName="fill" values="#ebedf0; #44a340" begin="0.5s" dur="0.5s" fill="freeze"/></rect>
            <rect x="0" y="56" width="12" height="12" rx="2"><animate attributeName="fill" values="#ebedf0; #44a340" begin="0.5s" dur="0.5s" fill="freeze"/></rect>
            <rect x="28" y="56" width="12" height="12" rx="2"><animate attributeName="fill" values="#ebedf0; #44a340" begin="0.5s" dur="0.5s" fill="freeze"/></rect>
            <rect x="0" y="70" width="12" height="12" rx="2"><animate attributeName="fill" values="#ebedf0; #44a340" begin="0.5s" dur="0.5s" fill="freeze"/></rect>
            <rect x="28" y="70" width="12" height="12" rx="2"><animate attributeName="fill" values="#ebedf0; #44a340" begin="0.5s" dur="0.5s" fill="freeze"/></rect>
        </g> -->

        <g>
            <rect x="0" y="14" width="12" height="12" rx="2"><animate attributeName="fill" values="#ebedf0; #44a340" begin="0.5s" dur="0.5s" fill="freeze"/></rect>
            <rect x="14" y="14" width="12" height="12" rx="2"><animate attributeName="fill" values="#ebedf0; #44a340" begin="0.5s" dur="0.5s" fill="freeze"/></rect>
            <rect x="0" y="28" width="12" height="12" rx="2"><animate attributeName="fill" values="#ebedf0; #44a340" begin="0.5s" dur="0.5s" fill="freeze"/></rect>
            <rect x="28" y="28" width="12" height="12" rx="2"><animate attributeName="fill" values="#ebedf0; #44a340" begin="0.5s" dur="0.5s" fill="freeze"/></rect>
            <rect x="0" y="42" width="12" height="12" rx="2"><animate attributeName="fill" values="#ebedf0; #44a340" begin="0.5s" dur="0.5s" fill="freeze"/></rect>
            <rect x="14" y="42" width="12" height="12" rx="2"><animate attributeName="fill" values="#ebedf0; #44a340" begin="0.5s" dur="0.5s" fill="freeze"/></rect>
            <rect x="0" y="56" width="12" height="12" rx="2"><animate attributeName="fill" values="#ebedf0; #44a340" begin="0.5s" dur="0.5s" fill="freeze"/></rect>
            <rect x="28" y="56" width="12" height="12" rx="2"><animate attributeName="fill" values="#ebedf0; #44a340" begin="0.5s" dur="0.5s" fill="freeze"/></rect>
            <rect x="0" y="70" width="12" height="12" rx="2"><animate attributeName="fill" values="#ebedf0; #44a340" begin="0.5s" dur="0.5s" fill="freeze"/></rect>
            <rect x="28" y="70" width="12" height="12" rx="2"><animate attributeName="fill" values="#ebedf0; #44a340" begin="0.5s" dur="0.5s" fill="freeze"/></rect>
        </g>
        <g>
            <rect x="56" y="14" width="12" height="12" rx="2"><animate attributeName="fill" values="#ebedf0; #44a340" begin="0.8s" dur="0.5s" fill="freeze"/></rect>
            <rect x="70" y="14" width="12" height="12" rx="2"><animate attributeName="fill" values="#ebedf0; #44a340" begin="0.8s" dur="0.5s" fill="freeze"/></rect>
            <rect x="84" y="14" width="12" height="12" rx="2"><animate attributeName="fill" values="#ebedf0; #44a340" begin="0.8s" dur="0.5s" fill="freeze"/></rect>
            <rect x="56" y="28" width="12" height="12" rx="2"><animate attributeName="fill" values="#ebedf0; #44a340" begin="0.8s" dur="0.5s" fill="freeze"/></rect>
            <rect x="56" y="42" width="12" height="12" rx="2"><animate attributeName="fill" values="#ebedf0; #44a340" begin="0.8s" dur="0.5s" fill="freeze"/></rect>
            <rect x="84" y="42" width="12" height="12" rx="2"><animate attributeName="fill" values="#ebedf0; #44a340" begin="0.8s" dur="0.5s" fill="freeze"/></rect>
            <rect x="56" y="56" width="12" height="12" rx="2"><animate attributeName="fill" values="#ebedf0; #44a340" begin="0.8s" dur="0.5s" fill="freeze"/></rect>
            <rect x="84" y="56" width="12" height="12" rx="2"><animate attributeName="fill" values="#ebedf0; #44a340" begin="0.8s" dur="0.5s" fill="freeze"/></rect>
            <rect x="56" y="70" width="12" height="12" rx="2"><animate attributeName="fill" values="#ebedf0; #44a340" begin="0.8s" dur="0.5s" fill="freeze"/></rect>
            <rect x="70" y="70" width="12" height="12" rx="2"><animate attributeName="fill" values="#ebedf0; #44a340" begin="0.8s" dur="0.5s" fill="freeze"/></rect>
            <rect x="84" y="70" width="12" height="12" rx="2"><animate attributeName="fill" values="#ebedf0; #44a340" begin="0.8s" dur="0.5s" fill="freeze"/></rect>
        </g>
        <g>
            <rect x="112" y="14" width="12" height="12" rx="2"><animate attributeName="fill" values="#ebedf0; #44a340" begin="1.1s" dur="0.5s" fill="freeze"/></rect>
            <rect x="126" y="14" width="12" height="12" rx="2"><animate attributeName="fill" values="#ebedf0; #44a340" begin="1.1s" dur="0.5s" fill="freeze"/></rect>
            <rect x="140" y="14" width="12" height="12" rx="2"><animate attributeName="fill" values="#ebedf0; #44a340" begin="1.1s" dur="0.5s" fill="freeze"/></rect>
            <rect x="126" y="28" width="12" height="12" rx="2"><animate attributeName="fill" values="#ebedf0; #44a340" begin="1.1s" dur="0.5s" fill="freeze"/></rect>
            <rect x="126" y="42" width="12" height="12" rx="2"><animate attributeName="fill" values="#ebedf0; #44a340" begin="1.1s" dur="0.5s" fill="freeze"/></rect>
            <rect x="126" y="56" width="12" height="12" rx="2"><animate attributeName="fill" values="#ebedf0; #44a340" begin="1.1s" dur="0.5s" fill="freeze"/></rect>
            <rect x="126" y="70" width="12" height="12" rx="2"><animate attributeName="fill" values="#ebedf0; #44a340" begin="1.1s" dur="0.5s" fill="freeze"/></rect>
        </g>
<g>
            <rect x="168" y="14" width="12" height="12" rx="2"><animate attributeName="fill" values="#ebedf0; #44a340" begin="1.4s" dur="0.5s" fill="freeze"/></rect>
            <rect x="182" y="14" width="12" height="12" rx="2"><animate attributeName="fill" values="#ebedf0; #44a340" begin="1.4s" dur="0.5s" fill="freeze"/></rect>
            <rect x="168" y="28" width="12" height="12" rx="2"><animate attributeName="fill" values="#ebedf0; #44a340" begin="1.4s" dur="0.5s" fill="freeze"/></rect>
            <rect x="196" y="28" width="12" height="12" rx="2"><animate attributeName="fill" values="#ebedf0; #44a340" begin="1.4s" dur="0.5s" fill="freeze"/></rect>
            <rect x="168" y="42" width="12" height="12" rx="2"><animate attributeName="fill" values="#ebedf0; #44a340" begin="1.4s" dur="0.5s" fill="freeze"/></rect>
            <rect x="196" y="42" width="12" height="12" rx="2"><animate attributeName="fill" values="#ebedf0; #44a340" begin="1.4s" dur="0.5s" fill="freeze"/></rect>
            <rect x="168" y="56" width="12" height="12" rx="2"><animate attributeName="fill" values="#ebedf0; #44a340" begin="1.4s" dur="0.5s" fill="freeze"/></rect>
            <rect x="196" y="56" width="12" height="12" rx="2"><animate attributeName="fill" values="#ebedf0; #44a340" begin="1.4s" dur="0.5s" fill="freeze"/></rect>
            <rect x="168" y="70" width="12" height="12" rx="2"><animate attributeName="fill" values="#ebedf0; #44a340" begin="1.4s" dur="0.5s" fill="freeze"/></rect>
            <rect x="182" y="70" width="12" height="12" rx="2"><animate attributeName="fill" values="#ebedf0; #44a340" begin="1.4s" dur="0.5s" fill="freeze"/></rect>
        </g>
        <g>
            <rect x="224" y="14" width="12" height="12" rx="2"><animate attributeName="fill" values="#ebedf0; #44a340" begin="1.7s" dur="0.5s" fill="freeze"/></rect>
            <rect x="238" y="14" width="12" height="12" rx="2"><animate attributeName="fill" values="#ebedf0; #44a340" begin="1.7s" dur="0.5s" fill="freeze"/></rect>
            <rect x="252" y="14" width="12" height="12" rx="2"><animate attributeName="fill" values="#ebedf0; #44a340" begin="1.7s" dur="0.5s" fill="freeze"/></rect>
            <rect x="224" y="28" width="12" height="12" rx="2"><animate attributeName="fill" values="#ebedf0; #44a340" begin="1.7s" dur="0.5s" fill="freeze"/></rect>
            <rect x="224" y="42" width="12" height="12" rx="2"><animate attributeName="fill" values="#ebedf0; #44a340" begin="1.7s" dur="0.5s" fill="freeze"/></rect>
            <rect x="238" y="42" width="12" height="12" rx="2"><animate attributeName="fill" values="#ebedf0; #44a340" begin="1.7s" dur="0.5s" fill="freeze"/></rect>
            <rect x="224" y="56" width="12" height="12" rx="2"><animate attributeName="fill" values="#ebedf0; #44a340" begin="1.7s" dur="0.5s" fill="freeze"/></rect>
            <rect x="224" y="70" width="12" height="12" rx="2"><animate attributeName="fill" values="#ebedf0; #44a340" begin="1.7s" dur="0.5s" fill="freeze"/></rect>
            <rect x="238" y="70" width="12" height="12" rx="2"><animate attributeName="fill" values="#ebedf0; #44a340" begin="1.7s" dur="0.5s" fill="freeze"/></rect>
            <rect x="252" y="70" width="12" height="12" rx="2"><animate attributeName="fill" values="#ebedf0; #44a340" begin="1.7s" dur="0.5s" fill="freeze"/></rect>
        </g>
        <g>
            <rect x="280" y="14" width="12" height="12" rx="2"><animate attributeName="fill" values="#ebedf0; #44a340" begin="2.0s" dur="0.5s" fill="freeze"/></rect>
            <rect x="308" y="14" width="12" height="12" rx="2"><animate attributeName="fill" values="#ebedf0; #44a340" begin="2.0s" dur="0.5s" fill="freeze"/></rect>
            <rect x="280" y="28" width="12" height="12" rx="2"><animate attributeName="fill" values="#ebedf0; #44a340" begin="2.0s" dur="0.5s" fill="freeze"/></rect>
            <rect x="308" y="28" width="12" height="12" rx="2"><animate attributeName="fill" values="#ebedf0; #44a340" begin="2.0s" dur="0.5s" fill="freeze"/></rect>
            <rect x="280" y="42" width="12" height="12" rx="2"><animate attributeName="fill" values="#ebedf0; #44a340" begin="2.0s" dur="0.5s" fill="freeze"/></rect>
            <rect x="308" y="42" width="12" height="12" rx="2"><animate attributeName="fill" values="#ebedf0; #44a340" begin="2.0s" dur="0.5s" fill="freeze"/></rect>
            <rect x="280" y="56" width="12" height="12" rx="2"><animate attributeName="fill" values="#ebedf0; #44a340" begin="2.0s" dur="0.5s" fill="freeze"/></rect>
            <rect x="308" y="56" width="12" height="12" rx="2"><animate attributeName="fill" values="#ebedf0; #44a340" begin="2.0s" dur="0.5s" fill="freeze"/></rect>
            <rect x="294" y="70" width="12" height="12" rx="2"><animate attributeName="fill" values="#ebedf0; #44a340" begin="2.0s" dur="0.5s" fill="freeze"/></rect>
        </g>
        <!-- <g>
            <rect x="336" y="14" width="12" height="12" rx="2"><animate attributeName="fill" values="#ebedf0; #44a340" begin="2.3s" dur="0.5s" fill="freeze"/></rect>
            <rect x="350" y="14" width="12" height="12" rx="2"><animate attributeName="fill" values="#ebedf0; #44a340" begin="2.3s" dur="0.5s" fill="freeze"/></rect>
            <rect x="336" y="28" width="12" height="12" rx="2"><animate attributeName="fill" values="#ebedf0; #44a340" begin="2.3s" dur="0.5s" fill="freeze"/></rect>
            <rect x="336" y="42" width="12" height="12" rx="2"><animate attributeName="fill" values="#ebedf0; #44a340" begin="2.3s" dur="0.5s" fill="freeze"/></rect>
            <rect x="350" y="42" width="12" height="12" rx="2"><animate attributeName="fill" values="#ebedf0; #44a340" begin="2.3s" dur="0.5s" fill="freeze"/></rect>
            <rect x="350" y="56" width="12" height="12" rx="2"><animate attributeName="fill" values="#ebedf0; #44a340" begin="2.3s" dur="0.5s" fill="freeze"/></rect>
            <rect x="336" y="70" width="12" height="12" rx="2"><animate attributeName="fill" values="#ebedf0; #44a340" begin="2.3s" dur="0.5s" fill="freeze"/></rect>
            <rect x="350" y="70" width="12" height="12" rx="2"><animate attributeName="fill" values="#ebedf0; #44a340" begin="2.3s" dur="0.5s" fill="freeze"/></rect>
        </g> -->
        <g>
            <rect x="336" y="14" width="12" height="12" rx="2"><animate attributeName="fill" values="#ebedf0; #44a340" begin="2.3s" dur="0.5s" fill="freeze"/></rect>
            <rect x="350" y="14" width="12" height="12" rx="2"><animate attributeName="fill" values="#ebedf0; #44a340" begin="2.3s" dur="0.5s" fill="freeze"/></rect>
            <rect x="364" y="14" width="12" height="12" rx="2"><animate attributeName="fill" values="#ebedf0; #44a340" begin="2.3s" dur="0.5s" fill="freeze"/></rect>
            <rect x="336" y="28" width="12" height="12" rx="2"><animate attributeName="fill" values="#ebedf0; #44a340" begin="2.3s" dur="0.5s" fill="freeze"/></rect>
            <rect x="336" y="42" width="12" height="12" rx="2"><animate attributeName="fill" values="#ebedf0; #44a340" begin="2.3s" dur="0.5s" fill="freeze"/></rect>
            <rect x="350" y="42" width="12" height="12" rx="2"><animate attributeName="fill" values="#ebedf0; #44a340" begin="2.3s" dur="0.5s" fill="freeze"/></rect>
            <rect x="364" y="42" width="12" height="12" rx="2"><animate attributeName="fill" values="#ebedf0; #44a340" begin="2.3s" dur="0.5s" fill="freeze"/></rect>
            <rect x="364" y="56" width="12" height="12" rx="2"><animate attributeName="fill" values="#ebedf0; #44a340" begin="2.3s" dur="0.5s" fill="freeze"/></rect>
            <rect x="336" y="70" width="12" height="12" rx="2"><animate attributeName="fill" values="#ebedf0; #44a340" begin="2.3s" dur="0.5s" fill="freeze"/></rect>
            <rect x="350" y="70" width="12" height="12" rx="2"><animate attributeName="fill" values="#ebedf0; #44a340" begin="2.3s" dur="0.5s" fill="freeze"/></rect>
            <rect x="364" y="70" width="12" height="12" rx="2"><animate attributeName="fill" values="#ebedf0; #44a340" begin="2.3s" dur="0.5s" fill="freeze"/></rect>
        </g>
    </g>
</svg>